<svg width="56" height="56" viewBox="0 0 56 56" fill="none" xmlns="http://www.w3.org/2000/svg">
<path d="M35.3414 31.7589L36.2402 29.4862H38.8353L37.6036 26.0385L39.1439 22.1434L43.5556 33.8569H40.3021L39.5482 31.7589H35.3414Z" fill="white"/>
<path d="M32.5659 33.857L37.2886 22.1436H34.1576L30.9269 29.7129L28.6296 22.1436H26.2229L23.7563 29.7129L22.0166 26.2638L20.4424 31.1137L22.0408 33.857H25.1221L27.3511 27.0688L29.4763 33.857H32.5659Z" fill="#5A0FC8"/>
<path d="M15.4165 29.8359H17.345C17.9293 29.8359 18.4495 29.7707 18.9056 29.6402L19.4045 28.1037L20.7983 23.8092C20.6922 23.6409 20.5709 23.4817 20.4346 23.3317C19.7188 22.5395 18.6717 22.1434 17.2931 22.1434H12.4445V33.8569H15.4165V29.8359ZM17.9693 24.8383C18.2488 25.1196 18.3886 25.4961 18.3886 25.9678C18.3886 26.4432 18.2656 26.8201 18.0199 27.0987C17.7502 27.4083 17.2541 27.563 16.5309 27.563H15.4165V24.4162H16.5391C17.213 24.4162 17.6897 24.5568 17.9693 24.8383Z" fill="white"/>
</svg>
